<svg width="69" height="35" viewBox="0 0 69 35" fill="none" xmlns="http://www.w3.org/2000/svg">
    <path
        d="M0.4 35V-2.38419e-06H8L20.75 20.75L15.3 20.7L28.2 -2.38419e-06H35.5V35H27.25V24.1C27.25 21.1 27.3167 18.4 27.45 16C27.6167 13.6 27.8833 11.2167 28.25 8.85L29.2 11.45L19.5 26.5H16.2L6.7 11.55L7.65 8.85C8.01667 11.0833 8.26667 13.3833 8.4 15.75C8.56667 18.0833 8.65 20.8667 8.65 24.1V35H0.4ZM44.2965 35V-2.38419e-06H52.7965V27.5H68.3965V35H44.2965Z"
    />
    <style>
        path { fill: #000; }
        @media (prefers-color-scheme: dark) {
        path { fill: #FFF; }
        }
    </style>
</svg>
    