<svg xmlns="http://www.w3.org/2000/svg" width="256" height="256"><g stroke-width="0" stroke-miterlimit="10" fill="#fff"><path d="M196.466 123.074h-1.254c-2.762 0-5.386.607-7.744 1.694-1.81-8.36-9.259-14.64-18.15-14.64h-1.256c-3.17 0-6.154.798-8.767 2.203-2.81-6.685-9.428-11.391-17.124-11.391h-1.256c-2.6 0-5.078.536-7.323 1.506V75.869c0-10.24-8.329-18.566-18.569-18.566h-1.256c-10.237 0-18.565 8.329-18.565 18.566v68.173l-8.444 6.41c-6.728 5.106-10.99 12.535-12.008 20.917-1.017 8.385 1.346 16.619 6.66 23.186l26.352 32.579v12.948c0 7.843 6.382 14.227 14.225 14.227h65.784c7.843 0 14.227-6.381 14.227-14.227l.003-12.293c8.419-10.583 13.036-23.711 13.036-37.21v-48.94c-.006-10.236-8.332-18.565-18.571-18.565zm7.325 67.502c0 11.526-4.153 22.727-11.687 31.54a5.6 5.6 0 00-1.348 3.652v14.314a2.99 2.99 0 01-2.987 2.987h-65.782a2.99 2.99 0 01-2.985-2.987v-14.938a5.62 5.62 0 00-1.25-3.535l-27.603-34.124c-3.383-4.181-4.89-9.425-4.24-14.764.646-5.336 3.363-10.068 7.646-13.32l1.647-1.247v15.441c0 3.102 2.517 5.62 5.62 5.62s5.62-2.518 5.62-5.62v-26.712-71.017a7.332 7.332 0 017.325-7.326h1.256c4.041 0 7.326 3.288 7.326 7.326v43.645l.028 36.297a5.62 5.62 0 005.62 5.614H128a5.618 5.618 0 005.614-5.626l-.025-36.29c0-4.042 3.285-7.326 7.323-7.326h1.256c4.04 0 7.326 3.287 7.326 7.325v9.195l.025 27.108a5.62 5.62 0 005.62 5.614h.006a5.62 5.62 0 005.614-5.626l-.025-27.105c0-4.04 3.284-7.326 7.322-7.326h1.257c4.04 0 7.325 3.288 7.325 7.326v11.487c-.017.186-.056.366-.056.554l.028 15.078a5.618 5.618 0 005.62 5.61h.011a5.62 5.62 0 005.61-5.632l-.026-13.634c.017-.174.053-.34.053-.517 0-4.04 3.288-7.326 7.326-7.326h1.253c4.04 0 7.326 3.288 7.326 7.326v48.939zM181.23 73.093h-34.294c-3.102 0-5.62-2.518-5.62-5.62s2.518-5.62 5.62-5.62h34.294a5.62 5.62 0 110 11.24zM113.764 46.94a5.622 5.622 0 01-5.62-5.62V7.027c0-3.103 2.518-5.62 5.62-5.62s5.62 2.517 5.62 5.62V41.32a5.618 5.618 0 01-5.62 5.62zM137.855 53.226a5.619 5.619 0 01-3.973-9.593l24.25-24.248a5.619 5.619 0 117.946 7.947l-24.25 24.247a5.602 5.602 0 01-3.973 1.647zM80.595 73.093H46.302c-3.102 0-5.62-2.518-5.62-5.62s2.518-5.62 5.62-5.62h34.293c3.102 0 5.62 2.517 5.62 5.62s-2.518 5.62-5.62 5.62zM89.677 53.226a5.593 5.593 0 01-3.973-1.647L61.456 27.332a5.619 5.619 0 117.947-7.947L93.65 43.632a5.619 5.619 0 010 7.947 5.593 5.593 0 01-3.973 1.647z"/></g></svg>