<svg xmlns="http://www.w3.org/2000/svg" xml:space="preserve" width="64" height="64" style="enable-background:new 0 0 128 128" viewBox="0 0 128 160"><path d="m107.9 64-6-18.1c-2.2-6.7-3.7-11.8-4.7-16.6C93.5 12.2 80.5 1 64 1 47.4 1 34.4 12.3 30.8 29.8c-.9 4.5-1.8 8.1-2.9 11.5l-7.3 23.1c-6.3 19.7-6.1 40.5.4 60.1.5 1.5 1.9 2.5 3.5 2.5H105c1.3 0 2.4-.8 2.8-2.1 6.6-19.6 6.6-41.2.1-60.9zM86 67c-.5 0-1 0-1.5-.1-.3 0-.6-.1-1-.2-1.6-.4-3.2.6-3.6 2.2-.4 1.6.6 3.2 2.2 3.6h.2L81 76.1c-3.9 11.2-6 23-6 34.9 0 6.1-5 11.1-11.2 11-6-.1-10.8-5.3-10.8-11.3 0-11.6-2-23.2-6-34.1l-1.4-3.9h.2c1.6-.4 2.6-2 2.2-3.6-.4-1.6-2-2.6-3.6-2.2-.3.1-.6.1-1 .2-.4-.1-.9-.1-1.4-.1-6.1 0-11-4.9-11-11s4.9-11 11-11h.9c.6.1 1.1-.4 1.1-1V23c0-2.5.9-4.8 2.4-6.5 2.3-2.7 6.1-3.8 9.6-3.1l6 1.2c1.3.3 2.7.3 4 0l6-1.2c3.5-.7 7.2.4 9.6 3.1 1.5 1.7 2.4 4 2.4 6.5v21c0 .6.5 1 1.1 1h.9c6.1 0 11 4.9 11 11s-4.9 11-11 11z"/><path d="m61 62 3-4 3 4-3-4z"/><path d="M67 65c-.9 0-1.8-.4-2.4-1.2L64 63l-.6.8c-1 1.3-2.9 1.6-4.2.6-.8-.6-1.2-1.5-1.2-2.4 0-.6.2-1.3.6-1.8l3-4c.6-.8 1.5-1.2 2.4-1.2s1.8.4 2.4 1.2l3 4c.4.5.6 1.2.6 1.8 0 .9-.4 1.8-1.2 2.4-.5.4-1.2.6-1.8.6zM42 60c-2.2 0-4-1.8-4-4s1.8-4 4-4c5.8 0 11-7.8 11-14 0-2.2 1.8-4 4-4s4 1.8 4 4c0 10.2-8.3 22-19 22zM86 60c-10.7 0-19-11.8-19-22 0-2.2 1.8-4 4-4s4 1.8 4 4c0 6.2 5.2 14 11 14 2.2 0 4 1.8 4 4s-1.8 4-4 4zM70.1 74c-1.5-1.9-3.7-3-6.1-3s-4.6 1.1-6.1 3c-1.4 1.9-2 4.2-1.4 6.5 1.6 8.5 2.5 17.3 2.5 26v4.6c0 2.8 2.2 5 5 5s5-2.2 5-5v-4.6c0-8.7.8-17.4 2.5-26 .5-2.3 0-4.7-1.4-6.5z"/></svg>