<?xml version="1.0" encoding="utf-8"?>
<!-- Generator: Adobe Illustrator 25.4.1, SVG Export Plug-In . SVG Version: 6.00 Build 0)  -->
<svg version="1.1" id="Layer_1" xmlns="http://www.w3.org/2000/svg" xmlns:xlink="http://www.w3.org/1999/xlink" x="0px" y="0px"
	 viewBox="0 0 388.7 72.5" style="enable-background:new 0 0 388.7 72.5;" xml:space="preserve">
<style type="text/css">
	.st0{fill:#FFFFFF;}
</style>
<path class="st0" d="M93.3,20c-14.6,0-26.1,12.2-26.6,26.5C60.8,58.7,47.1,70,34,67.5C2.5,62.5,2.2,3,30.7,1.7
	c14.4,0,19.4,11.2,20,22.8c0.1,1.4,1,2.1,1.8,2c3.3-0.5,5.8-3.3,6.1-6.6c0.1-2.5-0.5-5.1-1.7-7.3C52.8,4,43.1,0,33.7,0
	C14.6,0,0,15.7,0,35.5c0,18.5,13.6,37,32.4,37c14,0,28.2-10.9,34.3-23.7C67.4,62,78.4,72.4,91.6,72.4C125.1,71.7,128.6,21,93.3,20z
	 M109.6,47.3c-0.2,9.5-3.4,23.8-15.8,23.8c-22.4,0.8-25.3-49-2.5-49.9C104.7,21.2,109.9,36.3,109.6,47.3L109.6,47.3z"/>
<path class="st0" d="M265.9,12.5c6-0.1,6-8.9,0-9.1C259.9,3.6,259.9,12.3,265.9,12.5"/>
<path class="st0" d="M270.7,68.1v-47h-14.4V22c2.3,0.3,6,0.5,6,2.9v43.2c0,2.4-3.7,2.6-6,2.9v0.9h20.4v-0.9
	C274.8,70.7,270.7,70.5,270.7,68.1"/>
<path class="st0" d="M348.2,43c0-8.6,2.7-21.9,13.9-21.9c7.8,0,12.4,7.5,12.4,14.5c0,2.7-3.1,2.7-5.4,2.7c-14,0-18,4.4-20.2,12
	C348.5,47.9,348.3,45.5,348.2,43 M387.7,53.5c-9.2,19.5-28.9,19.5-36.9,3.6c-0.3-0.7-0.6-1.4-0.9-2.2c-0.2-0.7-0.4-1.4-0.5-2.1
	c1.9-9.1,7.9-13.6,22-12.6c8.5,0,10.7-3.4,10.7-6.7c0-8.8-10.4-13.7-17.9-13.7c-19.5,0-30.8,22.7-21.1,38.9
	c-2.6,4.8-5.8,8.5-9.3,8.5c-3.4,0-4.1-3.7-4.4-6.4c-0.3-9.3,1-18.6-0.2-27.9c-0.8-7.4-4.3-12.7-12.3-12.7
	c-9.4,0-19.3,16.2-21.2,26.2V21.1h-14.4V22c2.3,0.3,6,0.5,6,2.8v43.3c0,2.3-3.7,2.7-6,2.9v0.9h20.4v-0.9c-1.9-0.2-6-0.6-6-2.9V52.2
	c0.4-7.2,9-27,18.5-27c4.7,0,7,5.7,7,14.7c0,1.6-0.2,14.7-0.2,16.3c0,11.3,3.9,15.9,10.1,15.8c5.4,0,9.9-5.2,13.2-11.4
	c1,1.5,2.1,3,3.4,4.3c14.1,15,34.8,5.7,41-11L387.7,53.5z"/>
<path class="st0" d="M231.8,68.2c-8.2,0-12-5.7-15.3-11.5c-0.2-4.1,0.1-8.1,0.7-12.2c1.2-8.5,5.7-19.1,13.9-19.2
	c9,0,12.3,9.2,12.3,21.6S239.4,68.2,231.8,68.2 M234.2,20.5c-10.4,0-15.9,8.1-17.7,20.4V0.5h-14.4v0.9c2.3,0.3,6,0.6,6,2.9v52.3
	c-2.7,5.7-6.3,10.6-10.4,10.6c-5.9-0.1-4.2-11.4-4.6-15.4c0-7.1,0.3-14.2-0.7-21.1c-0.7-5.7-3.4-10.3-9.7-10.1
	c-9.5,0-16.2,15.9-18.2,25.9v-1.1c0-13.5,0.5-24.8-10.3-24.8c-9.5,0-16.3,15.9-18.2,25.9V21.1h-14.4V22c2.3,0.3,6,0.5,6,2.8v43.3
	c0,2.3-3.7,2.7-6,2.9v0.9h20.4v-0.9c-1.9-0.2-6-0.6-6-2.9V51.2c0.8-6,7.2-26,15.4-26c5.3,0,4.6,8.1,4.6,20v23c0,2.3-3.7,2.7-5.9,2.9
	V72h20.3V71c-1.9-0.2-5.9-0.6-5.9-2.9v-17c0.8-6,7.2-26,15.4-26c3.4,0,4.1,3.7,4.4,6.4c0.6,6.3,0.1,12.7,0.2,19
	c0.3,7.8-0.7,21.6,10.4,21.4c5.4,0,9.9-5.2,13.2-11.4v11.3h8.4V60.6c1.5,2,7.9,11.7,19.4,11.7C258.2,71.9,257.4,20.1,234.2,20.5"/>
</svg>
