<?xml version="1.0" encoding="utf-8"?>
<!-- Generator: Adobe Illustrator 26.0.1, SVG Export Plug-In . SVG Version: 6.00 Build 0)  -->
<svg version="1.1" id="Layer_1" xmlns="http://www.w3.org/2000/svg" xmlns:xlink="http://www.w3.org/1999/xlink" x="0px" y="0px"
	 viewBox="0 0 99.21 58.63" style="enable-background:new 0 0 99.21 58.63;" xml:space="preserve">
<g>
	<path d="M18.04,36.08c0,2.49-2.02,4.51-4.51,4.51s-4.51-2.02-4.51-4.51V10.15H0v25.93c0,7.47,6.06,13.53,13.53,13.53
		s13.53-6.06,13.53-13.53V10.15h-9.02V36.08z"/>
	<path d="M49.61,0c-7.47,0-13.53,6.06-13.53,13.53V45.1c0,7.47,6.06,13.53,13.53,13.53c7.47,0,13.53-6.06,13.53-13.53V33.82h-9.02
		V45.1c0,2.49-2.02,4.51-4.51,4.51s-4.51-2.02-4.51-4.51V13.53c0-2.49,2.02-4.51,4.51-4.51s4.51,2.02,4.51,4.51V24.8h9.02V13.53
		C63.14,6.06,57.08,0,49.61,0z"/>
	<path d="M85.68,9.02c-7.47,0-13.53,6.06-13.53,13.53v25.93h9.02V22.55c0-2.49,2.02-4.51,4.51-4.51c2.49,0,4.51,2.02,4.51,4.51
		v25.93h9.02V22.55C99.21,15.08,93.16,9.02,85.68,9.02z"/>
</g>
</svg>
