<svg class="prefix__c-logo__icon" width="51" height="51" xmlns="http://www.w3.org/2000/svg"><path d="M25.5 0C11.417 0 0 11.417 0 25.5S11.417 51 25.5 51 51 39.583 51 25.5 39.583 0 25.5 0zm-.385 5.064a3.3 3.3 0 013.307 3.291 3.304 3.304 0 01-3.307 3.306 3.3 3.3 0 01-3.29-3.306 3.29 3.29 0 013.29-3.291zm14.289 10.652l-9.809 1.24.005 9.817 4.755 15.867a1.85 1.85 0 01-1.344 2.252c-.989.25-2.003-.3-2.252-1.298l-4.87-14.443h-1.498l-4.48 14.742c-.374.964-1.448 1.404-2.407 1.03-.954-.37-1.533-1.454-1.158-2.418l4.115-15.572v-9.978l-9.04-1.228c-.928-.075-1.558-.89-1.483-1.818.07-.934.914-1.628 1.838-1.554l10.982.944h4.815l11.69-.963a1.68 1.68 0 011.749 1.623 1.69 1.69 0 01-1.608 1.758z"/></svg>