<svg width="64" height="64" viewBox="0 0 64 64" fill="none" xmlns="http://www.w3.org/2000/svg">
<path d="M23.8522 58.6667C21.6867 58.682 19.5699 58.0244 17.7943 56.7848C16.0186 55.5451 14.6718 53.7846 13.94 51.7465C13.2081 49.7083 13.1273 47.4932 13.7087 45.4072C14.2901 43.3211 15.505 41.4671 17.1855 40.1014C15.9781 39.1241 15.0044 37.8895 14.3355 36.4876C13.6666 35.0857 13.3195 33.552 13.3195 31.9987C13.3195 30.4454 13.6666 28.9117 14.3355 27.5098C15.0044 26.1079 15.9781 24.8732 17.1855 23.896C15.5029 22.5315 14.286 20.6776 13.7033 18.5911C13.1207 16.5045 13.201 14.2884 13.9333 12.2495C14.6655 10.2106 16.0135 8.44978 17.7905 7.21069C19.5676 5.97161 21.6859 5.31556 23.8522 5.33336H40.1455C42.3119 5.31556 44.4301 5.97161 46.2072 7.21069C47.9843 8.44978 49.3322 10.2106 50.0645 12.2495C50.7967 14.2884 50.8771 16.5045 50.2944 18.5911C49.7117 20.6776 48.4949 22.5315 46.8122 23.896C48.4943 25.261 49.7107 27.1151 50.2931 29.2016C50.8754 31.2882 50.795 33.5041 50.0629 35.5429C49.3307 37.5818 47.9831 39.3427 46.2064 40.5821C44.4297 41.8216 42.3118 42.4783 40.1455 42.4614C38.0948 42.4639 36.0881 41.8669 34.3722 40.744V48.2107C34.3602 50.9912 33.246 53.6534 31.2738 55.6136C29.3017 57.5737 26.6327 58.6717 23.8522 58.6667ZM23.7935 42.464C22.662 42.4819 21.5611 42.8337 20.6289 43.4754C19.6968 44.117 18.975 45.0198 18.5543 46.0703C18.1336 47.1209 18.0328 48.2723 18.2645 49.38C18.4961 50.4877 19.05 51.5022 19.8564 52.2961C20.6628 53.0899 21.6859 53.6278 22.7971 53.8421C23.9082 54.0564 25.0579 53.9375 26.1018 53.5004C27.1456 53.0633 28.0369 52.3275 28.6639 51.3854C29.2908 50.4434 29.6254 49.337 29.6255 48.2054V42.464H23.7909H23.7935ZM40.1482 26.2587C39.0139 26.2645 37.9068 26.6061 36.9665 27.2405C36.0262 27.8749 35.2949 28.7736 34.8649 29.8232C34.4348 30.8728 34.3253 32.0262 34.5501 33.138C34.775 34.2497 35.3241 35.27 36.1282 36.07C36.9323 36.87 37.9553 37.4139 39.0682 37.6331C40.1811 37.8523 41.334 37.7369 42.3814 37.3015C43.4288 36.8661 44.3237 36.1302 44.9533 35.1867C45.5829 34.2432 45.9189 33.1343 45.9189 32C45.9132 30.4735 45.3021 29.0116 44.2197 27.9352C43.1373 26.8588 41.6721 26.2559 40.1455 26.2587H40.1482ZM23.8549 26.2587C22.3322 26.2506 20.8686 26.8476 19.7862 27.9186C18.7037 28.9896 18.091 30.4467 18.0829 31.9694C18.0747 33.4921 18.6718 34.9556 19.7428 36.0381C20.8137 37.1205 22.2708 37.7332 23.7935 37.7414H29.6255V26.2587H23.8549ZM34.3722 10.0534V21.5387H40.1429C41.6282 21.5456 43.0585 20.9772 44.1339 19.9525C45.2093 18.9279 45.8461 17.5266 45.9109 16.0427V17.2027V15.7947C45.9045 14.2698 45.2943 12.8095 44.2138 11.7335C43.1333 10.6575 41.6705 10.0533 40.1455 10.0534H34.3722ZM23.8495 10.0534C22.3268 10.0534 20.8665 10.6582 19.7898 11.735C18.7131 12.8117 18.1082 14.272 18.1082 15.7947C18.1082 17.3174 18.7131 18.7777 19.7898 19.8544C20.8665 20.9311 22.3268 21.536 23.8495 21.536H29.6255V10.0534H23.8495Z" fill="black"/>
</svg>
