<svg width="64" height="64" fill="none" xmlns="http://www.w3.org/2000/svg"><path d="M8 8h48v48H8V8zm12.613 40.107c1.067 2.266 3.174 4.133 6.774 4.133 4 0 6.746-2.133 6.746-6.8V30.027H29.6v15.306c0 2.294-.933 2.88-2.4 2.88-1.547 0-2.187-1.066-2.907-2.32l-3.68 2.214zm15.947-.48c1.333 2.613 4.027 4.613 8.24 4.613 4.267 0 7.467-2.213 7.467-6.293 0-3.76-2.16-5.44-6-7.094l-1.12-.48c-1.947-.826-2.774-1.386-2.774-2.72 0-1.093.827-1.946 2.16-1.946 1.28 0 2.134.56 2.907 1.946l3.493-2.32c-1.466-2.56-3.546-3.546-6.4-3.546-4.026 0-6.613 2.56-6.613 5.946 0 3.68 2.16 5.414 5.413 6.8l1.12.48c2.08.907 3.307 1.467 3.307 3.014 0 1.28-1.2 2.213-3.067 2.213-2.213 0-3.493-1.147-4.453-2.747l-3.68 2.134z" fill="#000"/></svg>