<svg version="1.0" xmlns="http://www.w3.org/2000/svg" width="1365.333" height="1365.333" viewBox="0 0 1024 1024"><path d="M485.5 84.6c-115.9 7.6-223.1 61-298.6 148.9-49.3 57.3-83.6 129.9-96.4 203.7-4.9 28.8-5.9 41.2-5.9 74.8 0 33.6 1 46 5.9 74.8 16.6 96 67.8 185.8 143 250.3 57.3 49.3 129.9 83.6 203.7 96.4 28.8 4.9 41.2 5.9 74.8 5.9 33.6 0 46-1 74.8-5.9 94.6-16.4 184.2-66.9 247.5-139.8 51.6-59.4 86.1-131.4 99.2-206.9 4.9-28.8 5.9-41.2 5.9-74.8 0-33.6-1-46-5.9-74.8-16.6-96-67.8-185.8-143-250.3-25.2-21.7-52.7-40.1-84.2-56.2-47.1-24-92.9-37.8-147.3-44.2-13-1.6-60.2-2.7-73.5-1.9zm53.5 9.9c77.3 3.9 158.7 33.9 223.5 82.5 91 68.2 150.1 169.5 164.6 281.9 2.1 16.9 4 51.3 3.2 60.2l-.5 5.6-6.7.6c-12.1 1-21 3.8-35.1 11-16.6 8.5-27.7 12.3-40.3 13.8-18.1 2.3-37.1-1.9-56.1-12.1-16.3-8.8-32.4-13-49.6-13-17.2 0-32.9 4.1-49.7 13.1-31.3 16.7-61.6 16.7-92.7-.1-16.3-8.8-32.4-13-49.6-13-17.1 0-32.5 4-49.6 12.9-5.3 2.8-10 4.8-10.4 4.6-.5-.3-4.9-6.4-10-13.5l-9.2-13.1 6.6-6.9c4.7-5.1 7.8-9.5 11-16.2 5.3-11.1 6.9-18.2 6.9-30.3-.1-18.5-6.6-33.9-20.2-47.6-7.2-7.2-10.2-9.4-18.1-13.3-5.2-2.5-12.6-5.3-16.5-6.1-25.1-5.3-52.2 4-68.3 23.4-17.3 20.7-21 50-9.7 74.8 2.8 6 3.8 7.3 6.2 7.9 13.3 3 18.4 4.9 32 12.1 13.1 6.9 22.5 10.1 34.3 11.5l9.6 1.2 6.3 11.9 6.3 12-10.3-.6c-13.5-.7-23.4-3.8-40.5-12.8-18.4-9.7-27.9-12.1-47.9-12.2-20.8 0-28.3 1.9-50 12.8-21.3 10.7-26.3 12-47 12-19.8 0-24.2-1.2-47-12.6-17.1-8.5-22.8-10.3-37-12-20.3-2.3-38.8 1.4-58.9 11.9-14 7.4-22.3 10.9-23.3 9.9-1.2-1.3-2-34.7-1.2-53.2 5.4-125.3 66.5-240.9 167.4-316.5 66.8-50.1 147.2-79.1 230.5-83 16.1-.7 23.5-.6 47 .5zm-99.2 330.9c13.3 4.8 23.4 17.4 26.2 32.4 4.6 25.4-20.6 50.7-45.8 46.1-15.7-2.9-27.5-13.5-32.2-28.7-2.5-8.1-2.5-15.3 0-23.4 2.6-8.4 7.1-15.1 13.9-20.4 5.4-4.3 14.3-8 20.6-8.6 4.3-.4 12.3.8 17.3 2.6zM182.2 535.1c9.9 2 18.3 5.2 31.3 12 7.2 3.7 16 7.7 19.8 8.8 10.8 3.3 26.9 4.6 39 3.3 15.3-1.7 20.7-3.4 38.2-12.2 20.9-10.4 26.6-12.1 42.9-12.7 19.8-.9 32.8 2.2 49.8 11.6 16.4 9.2 26.9 12.4 44.3 13.7 9.5.7 23-.6 33-3.1 3.3-.8 12.8-4.8 21-8.9 21.7-10.7 32-13.6 48.5-13.6 16.2 0 26.7 2.9 47.5 13.1 19.6 9.7 29.5 12.1 48.5 12.1 19.2 0 29-2.4 48.5-12.1 20.7-10.2 31.2-13.1 47.6-13.1 16.3 0 26.6 2.8 47.4 13 15.7 7.8 24.1 10.4 38.5 12 19.3 2.3 39.3-1.8 58.5-11.9 6.1-3.2 13.7-6.8 17-8 6.5-2.5 18.9-5.1 23.7-5.1h3l-.6 6.7c-.4 3.8-.9 9.6-1.2 12.9l-.6 6.1-9.7 1.1c-13.2 1.5-21 4.1-38.6 12.8-19.8 9.8-27 11.7-45 11.8-19 0-27.1-2.1-49-13.3-17.4-8.9-27.7-11.4-47-11.4-20.1-.1-27.6 1.8-49.5 12.3-21.7 10.5-28.4 12.3-46.5 12.4-18.3 0-25.9-1.9-46-11.9-20.9-10.4-30.1-12.8-50-12.8-20.4-.1-27.8 1.7-49.2 12.3-21.6 10.7-27.6 12.3-46.8 12.4-19.4.1-24.2-1.1-46-11.9-22.6-11.2-29.1-12.9-49.5-13-21.8 0-34.7 3.3-51.7 13.4-14.9 8.8-30.9 12.7-49.3 11.8-15.8-.7-21.9-2.5-41.5-12.3-22.7-11.2-28.3-12.7-49.5-12.8-23.4-.1-30.4 1.8-56 15.3-4.1 2.2-7.6 3.8-7.8 3.6-.4-.4-3.2-19.1-3.2-21.6 0-1.1 1.2-1.9 3.5-2.3 2-.4 10-4 17.8-8 14.1-7.2 23.3-10.8 31.8-12.5 6.4-1.3 26.9-1.3 33.1 0zm-5.2 35c10 1.6 20.6 5.5 31 11.4 29.4 16.7 65.3 17.9 93.7 3.3 18.5-9.6 21.2-10.8 28.5-12.8 9.3-2.7 27.6-3.7 37.7-2.1 10.9 1.7 21.3 5.5 32.1 11.6 17.7 10 35.9 14.3 56 13.2 16.1-.9 25.2-3.6 43.5-12.7 21.1-10.5 27.8-12.3 46.5-12.3 18.4-.1 24.8 1.6 46 11.8 17.8 8.5 24.7 10.8 38 12.5 20.9 2.7 38.7-.8 62.2-12.4 17.3-8.5 26.9-11.4 41-12.3 17.3-1.1 31 2.2 50.8 12.2 14.9 7.5 25.2 10.9 38 12.5 21.2 2.8 38.8-.8 63.3-12.9 16.2-8 24-10.5 35.4-11.7l6.1-.7-1.3 7.9c-.7 4.4-2.1 12-3 17.1l-1.8 9.2-4.6.6c-9.7 1.3-22.9 5.8-33.6 11.4-19.6 10.3-30.5 13.3-48.5 13.4-16.2 0-25.3-2.5-46-12.4-22.9-10.9-28.2-12.3-49.5-12.3-21.6 0-28.1 1.5-49.1 12-19.7 9.7-30.3 12.6-46.9 12.7-16.9 0-25.7-2.3-46.5-12.3-22.8-11-28.2-12.4-49.5-12.4-21.8 0-28 1.5-50 12.4-20.4 10.1-28.5 12.3-45.5 12.4-18.3.1-31.6-3.4-47.2-12.5-9.5-5.6-19.9-9.5-30.3-11.4-11.2-2.1-34.5-1.6-44.5 1-3.6.9-14.1 5.4-23.5 10-9.7 4.8-20.3 9.3-24.6 10.4-23.3 6-47.1 2.4-69.8-10.4-17.8-10-31.1-13-53.6-12.2-17.1.6-23.5 2.2-38.4 9.3-6.2 3.1-11.5 5.3-11.8 5-.7-.7-6.2-24.4-6.3-26.8 0-1.2 2.1-2.8 6.3-4.8 3.4-1.6 9.6-4.8 13.7-7 7.8-4.2 17.4-7.6 25.7-9 7.1-1.1 22.9-1.1 30.3.1zm7.5 44.4c6.9 1.7 13.3 4.4 22.3 9.1 20.8 11 30.7 13.6 51.7 13.6 13.5-.1 24.9-1.8 33.4-5.2 2.6-1 10.8-5 18.3-8.8 18.7-9.6 27.3-11.6 47-10.9 8.5.2 16.7 1.1 20.3 2.1 3.3.8 13.2 5.2 22 9.6 8.8 4.3 19.2 8.9 23 10 13 3.9 39 4.2 53.5.5 3.6-.8 13.7-5.1 22.5-9.5 22.4-11.1 27.9-12.5 48-12.4 14.5 0 16.9.3 25 2.8 5 1.5 13.5 5.1 19 8 20.4 10.9 34 14.1 56.1 13.3 18.1-.6 25.8-2.7 44.9-12.2 21.3-10.6 27-12 47-11.9 14.4 0 16.9.3 24.8 2.7 4.8 1.5 14.5 5.6 21.5 9.1 7 3.6 16.8 7.7 21.7 9.2 8.4 2.6 10.2 2.8 27.5 2.8 22.9.1 27.6-1 50.5-12.4 10.9-5.4 18.7-8.6 24.4-10 4.7-1 8.7-1.7 8.9-1.5.6.5-1.6 8.6-6.3 24l-3.4 11-6.3 1.8c-3.5 1-13 5.1-21.3 9.2-18.3 9.1-26.4 11.5-41.2 12.2-19.4 1-30.2-1.6-52.8-12.8-7.7-3.7-17.4-7.8-21.6-8.9-10.6-2.8-25.1-4-36.1-3-15.7 1.6-24.4 4.4-43.3 14-14.1 7.2-24.8 10.2-38.8 10.8-18.9.8-29.9-1.9-52.2-12.9-21.4-10.5-37.5-13.8-57.8-11.9-14.8 1.4-24 4.4-41.2 13-20.4 10.3-25.5 11.5-46.5 11.4-15.3 0-17.1-.2-24.9-2.8-4.6-1.5-14.7-6-22.6-10.1-18.8-9.6-27.4-11.8-47.5-11.8-20.4 0-28.1 2-49.5 12.8-21.5 10.8-26.2 12-47.5 11.9-15.3 0-17.1-.2-25-2.8-4.7-1.6-14.4-5.9-21.7-9.7-18.3-9.7-27.7-12.1-47.8-12.2-16.4 0-26.8 1.8-37.8 6.7-5.2 2.3-5.8 2.3-6.6.8-.9-1.8-8.1-24.1-8.1-25.2 0-1.6 23-12.1 30.5-13.9 12.3-3 31.4-2.8 44 .4zm0 42.5c4.9 1.2 13.4 4.8 22 9.1 23.7 12.1 33.5 14.5 56.2 13.6 19-.7 29-3.6 45.6-13 17.6-10 36.8-14.1 55.5-11.9 13.4 1.6 21.5 4.3 36.7 12.2 17.7 9.4 27.2 12 44.7 12.7 14.9.6 24.7-.5 35.2-3.9 6.3-2.1 8.8-3.2 24.3-11.2 16.8-8.6 36.1-11.9 53.8-9.2 12.2 1.8 21.8 5.1 35 12.1 17.9 9.5 33.7 13.1 53.3 12.3 16.3-.8 25.6-3.4 44.2-12.5 16.5-8 27.9-11.6 41-12.8 15.9-1.4 35.3 3.2 52.5 12.5 18.1 9.8 35.3 13.7 55.4 12.7 15.6-.8 24.9-3.4 41.6-11.7 14.8-7.3 21.6-10.3 22.2-9.7.4.5-7.3 19.5-12.5 30.9l-4 8.6-11.4 5.6c-16.3 8.1-24 9.9-41.8 9.9-12.8 0-15.5-.3-23.5-2.6-4.9-1.5-15.3-5.9-23-9.7-19.7-9.9-29.3-12.3-49-12.3-20.1-.1-27.6 1.8-49.5 12.3-21.7 10.5-28.4 12.3-46.5 12.4-18.3 0-25.9-1.9-46-11.9-20.9-10.4-30.1-12.8-50-12.8-20.4-.1-28.1 1.8-49.5 12.4-18.4 9.1-27.2 11.8-41.6 12.6-19.2 1.1-31-1.9-53.9-13.6-19.2-9.8-25.6-11.4-46.5-11.5-19.9-.1-30 2-43.8 9.2-24.8 12.9-31.2 15-47.8 15.9-19.2 1.1-31-1.9-53.9-13.6-19.4-9.9-25.6-11.4-47-11.5-12.8 0-18.4.4-22.7 1.6l-5.8 1.6-2.1-4.6c-3-6.6-9.9-23.1-9.9-23.6 0-1 15.9-6.5 21.5-7.5 3.3-.6 7.1-1.3 8.5-1.5 5.5-1 24.8.4 32.5 2.4zm-7.5 41.1c10 1.6 20.6 5.5 31 11.4 29.4 16.7 65.3 17.9 93.7 3.3 18.5-9.6 21.2-10.8 28.5-12.8 9.3-2.7 27.6-3.7 37.7-2.1 10.8 1.7 21.3 5.5 32.2 11.6 17.8 10.1 35.8 14.3 55.9 13.2 16.1-.9 25.2-3.6 43.5-12.7 18-9 27.2-11.8 41.7-12.7 17.3-1.1 30.9 2.2 50.8 12.2 21.1 10.6 37.9 14.4 56.9 13 14.9-1 26.1-4.4 43.3-12.9 17.3-8.6 26.7-11.4 41-12.3 17.3-1.1 31.1 2.2 50.8 12.2 14.9 7.5 25.2 10.9 38 12.5 16.2 2.1 35.6-.5 50.1-6.5 3.4-1.5 6.3-2.4 6.5-2.2 1 .9-24.9 41.7-26.5 41.7-.4 0-4.4.5-9 1-17.2 2.2-34.4-1.6-56.1-12.5-20.4-10.3-32.8-13.1-53.2-12.3-17 .7-26 3.3-44.4 12.4-19.8 9.8-30.3 12.6-46.9 12.6-17 .1-25.8-2.2-46.5-12.2-22.8-11-28.2-12.4-49.5-12.4-21.7-.1-27.9 1.4-50 12.4-8.9 4.4-19.3 8.8-23.5 9.8-23.3 6-47.2 2.5-69.9-10.3-10.9-6.1-21.4-9.9-32.2-11.6-9.7-1.5-33.4-.6-41.9 1.6-3.6.9-14.1 5.4-23.5 10-9.6 4.7-20.3 9.3-24.5 10.3-22.7 5.9-48.1 2.4-68.1-9.4-15.5-9-26.9-12.4-45.3-13.3l-12.8-.6-8.4-15c-6.5-11.6-8.1-15.1-7-15.7 4.5-2.5 26.5-3.5 37.6-1.7zm8.5 44.3c3.3.9 13.2 5.2 22 9.6 23.4 11.7 26.8 12.5 50 12.5 24.1 0 28.1-1 50.2-12.1 21.8-11 29.3-12.8 49.5-12.1 8.5.2 16.7 1.1 20.3 2.1 3.3.8 13.2 5.2 22 9.5 24.3 12.1 30.6 13.6 54.7 12.8 20.3-.6 23.8-1.6 44.3-11.7 22.4-11.1 27.9-12.5 48-12.4 14.4 0 16.9.3 24.8 2.7 4.8 1.5 14.5 5.6 21.5 9.2 7 3.5 16.8 7.7 21.7 9.2 8.4 2.5 10.2 2.7 27.5 2.7 23 0 28.2-1.3 49.5-11.9s27-12 47-11.9c14.4 0 16.9.3 24.8 2.7 4.8 1.5 14.5 5.6 21.5 9.1 18.1 9.2 27.1 11.7 45.4 12.5l14.8.6-5.4 6.8c-3 3.7-9.1 10.9-13.6 16.1l-8.2 9.3-3.8-.8c-6.9-1.6-17.4-5.8-29.1-11.7-18.6-9.5-36.5-13.1-55.8-11.2-16 1.6-24.6 4.3-43.6 14-14.1 7.2-24.8 10.2-38.8 10.8-18.9.8-29.9-1.9-52.2-12.9-7.7-3.7-17.4-7.7-21.5-8.9-17.1-4.6-37-4.5-54.3.1-4.3 1.2-14.7 5.6-23.2 9.9-20.4 10.3-25.5 11.5-46.5 11.4-15.3 0-17.1-.2-25-2.8-4.7-1.6-14.4-5.9-21.7-9.7-18.4-9.8-27.8-12.1-47.8-12.2-20.9 0-28.4 1.9-50 12.8-21.5 10.8-26.2 12-47.5 11.9-15.3 0-17.1-.2-25-2.8-4.6-1.6-14.8-6.1-22.5-10.1-7.8-4-15.8-7.7-17.9-8-3.3-.7-4.7-2-11.3-10.5-4.1-5.4-10.2-13.7-13.5-18.5l-6.1-8.8 9.4.6c5.2.3 12.1 1.2 15.4 2.1zm191 42.5c5.1 1.3 13.3 4.7 22.7 9.5 19.7 10.1 28.4 12.6 46 13.3 20.7.9 33-1.6 49.3-10 16.5-8.4 20.2-10 29-12.2 24-6.1 45.7-3.1 69 9.5 17.8 9.6 35.2 13.7 54.9 12.7 15.7-.7 25.3-3.4 43.5-12.3 16.4-8.1 27.9-11.7 41.1-12.9 15.7-1.4 35.4 3.2 52 12.2 4.6 2.6 12.4 6.1 17.3 7.8l8.9 3.2-11.9 11.1c-6.5 6.2-12.2 11-12.8 10.8-17.9-8.4-28.9-10.9-47.5-11-19.6 0-27.3 2-49 12.4-21.8 10.5-28.5 12.3-46.5 12.3-19.1.1-27.2-2.1-49-13.2-17.2-8.8-27.7-11.4-46.5-11.5-20.6-.1-34.1 3.4-52 13.4-14.1 8-29 12-44.4 12-17.2 0-27.4-2.9-48.6-13.7-19.8-10-26-11.6-47-11.7-20.3-.1-30 2-44.9 9.7-23.6 12.3-30.2 14.5-46.1 15.3l-9.5.6-10.5-8.9c-11.6-9.7-38-35.2-41.2-39.5-1.8-2.6-1.2-2.4 8.4 2.6 5.7 3 14.4 6.7 19.3 8.2 8.3 2.5 10.4 2.8 27 2.8 23.5.1 31.3-1.9 51.5-13 10.6-5.9 21.3-9.8 31-11.3 9.3-1.4 27.1-.5 36.5 1.8zm-4.8 41.7c10.3 2.1 18.9 5.4 29.2 11.4 16.8 9.5 35.3 13.8 55.1 12.6 16.3-.9 25.3-3.5 43.5-12.6 18-9 27.1-11.8 41.7-12.7 17.3-1.1 31.1 2.2 50.8 12.2 20.9 10.5 38 14.5 56.5 13.1 16.9-1.3 25.1-3.8 46-14.2 18.3-9 25.3-10.7 44-10.7 13.3 0 15.9.2 23.5 2.6 4.7 1.4 10.3 3.3 12.5 4.3l4 1.6-4.5 3.9c-2.5 2.2-9.7 7.7-16 12.3l-11.5 8.4-12.5.5c-17.2.6-26.1 3.1-44.6 12.3-19.7 9.7-30.2 12.6-46.9 12.6-16.7.1-25.5-2.2-46.5-12.3-22.9-10.9-28.2-12.3-49.5-12.3-21.8-.1-27.9 1.4-50 12.4-16.7 8.3-26.1 11.2-40 12.6-16 1.5-36.7-3.5-52.7-12.8-16.2-9.3-29.8-12.8-50.3-12.8-16.5 0-27.4 2.4-41.5 9.1l-11.1 5.3-3.2-1.9c-8.8-5-30.5-20-30.1-20.7.3-.4 2-.8 3.7-.8 9.4 0 23.9-5.3 42.7-15.5 6.9-3.8 16.7-7.1 24.7-8.5 8.3-1.4 25-1.1 33 .6zm1.4 42.8c8.6 1.9 17.8 5.6 27.7 11.2 17.7 10 30.5 12.9 53.8 12.1 19.8-.6 23.5-1.6 43.9-11.7 22.4-11.1 27.9-12.5 48-12.4 14.4 0 16.9.3 24.8 2.7 4.8 1.5 14.5 5.6 21.5 9.1 7 3.6 16.8 7.7 21.7 9.2 8.4 2.6 10.3 2.8 27 2.8 22.6.1 28.7-1.3 50-11.9 14.4-7.1 24.5-10.6 34.8-12.1 2.6-.3 4.7-.4 4.7-.1 0 1-26.4 15.5-38.3 21.1-21.6 10.2-42.7 18.3-64.3 24.5-23.5 6.8-20.4 6.8-34.7-.4-19.9-9.9-37.8-13.5-57.4-11.5-14.5 1.5-24.3 4.6-39.1 12.2-14.9 7.6-21.8 10.2-32 11.9-6.2 1-8.7.9-20.4-1.1-25.3-4.2-33.8-6.5-45-12.4-11.5-6.1-21.2-9.2-33.8-10.6-9.3-1.1-16.4-3.7-38.5-14.4-18.6-9.1-18.2-8.6-9.5-12.5 11.6-5.1 20.7-6.9 35.5-7 7.6 0 15.8.5 19.6 1.3zM567.5 913c7.8 2 22.1 7.6 23 9 2.3 3.7-64 9.5-92 8.1l-11-.6 7.5-3.9c18-9.5 25.8-12.4 39.6-14.6 8.1-1.2 23.9-.3 32.9 2z"/><path d="M213 397c-2 2-2 3.1-1.8 58.3l.3 56.2 9 4.7c12.7 6.6 22.2 9 37.7 9.6 12.8.4 23.5-1 31.6-4.4l3.2-1.3v-10c0-13.9 1.7-13.1-28.7-13.1H240v-49c0-58.5 1.5-53-14.5-53-9.2 0-10.8.3-12.5 2zM312.5 396.2c-4.6 2.5-4.5 1.3-4.5 59.4v55.3l5.6-2.6c3-1.4 9.5-3.5 14.5-4.6l8.9-2.2v-50.2c0-27.6-.3-50.9-.6-51.8-1.2-3-6-4.5-14.1-4.5-4.3 0-8.7.6-9.8 1.2zM513.6 396.9c-1.6 1.7-1.7 5.7-1.4 47.7.3 44.7.4 46 2.5 51.8 1.3 3.3 2.6 6.3 3 6.7.5.4 3.7.1 7.3-.7 3.6-.8 11.3-1.5 17.2-1.6l10.7-.2-4.4-4.7c-7.4-7.9-7.5-9-7.5-57.5 0-37.5-.2-42.3-1.6-42.8-.9-.3-6.6-.6-12.8-.6-9.8 0-11.5.3-13 1.9zM596.7 396.8c-1.5 1.7-1.7 6.1-1.7 43.3 0 46.7-.2 48.6-6.8 55.8-2.4 2.7-5.8 5-9.5 6.5-5.6 2.2-5.7 2.4-3 3.1 1.5.3 9.5 3.8 17.7 7.6l14.9 7 2.8-2.7c1.5-1.4 4.2-5.3 5.9-8.6 6.3-11.8 6.3-11.8 6.7-63.6.3-35.5.1-47.7-.8-48.8-.9-1.1-3.9-1.4-12.9-1.4-10.1 0-11.9.3-13.3 1.8zM654.2 396.2c-.9.9-1.2 16.8-1.2 65.5 0 57.3.2 64.3 1.5 64.3 4.1 0 17.6-3.4 22.3-5.7l5.2-2.4v-59.5c0-39.1-.4-60.2-1-61.5-1-1.7-2.2-1.9-13.3-1.9-8.2 0-12.7.4-13.5 1.2zM715.3 396.9l-4.3 2V503.2l3.8-.7c2-.4 8.4-1 14.2-1.4l10.5-.6.3-40.3.2-40.4 14.3.4c13.5.3 14.5.4 20.9 3.5 8.5 4 15.2 10.7 19.2 19.3 3.9 8.3 4.8 21.3 2.2 30.6-4.1 14.4-17.1 25.8-31.9 27.9l-4.7.7 9.9 3.4c5.5 1.8 14.1 5.4 19.1 7.9l9.3 4.7 5.5-3.8c10.1-7 20.1-22.2 23.3-35.4 1.7-7 1.7-24.8 0-32-4.7-19.2-17.9-35.7-35.6-44.6-12.4-6.2-15.2-6.6-45-7.1-25.3-.3-27.3-.2-31.2 1.6z"/></svg>