<svg width="33" height="33" fill="none" xmlns="http://www.w3.org/2000/svg"><path d="M29.919 24.582l-7.694-13.707c-.133-.106-.533-.866-1.333-.866-.333 0-.8.133-1.28.867l-.987 1.573-2.693-4.814c-.067-.133-.533-.866-1.333-.866-.334 0-.867.133-1.267.866l-9.573 16.88c-.067.134-.467.92-.067 1.587.133.334.533.667 1.413.667h23.547c.133 0 1 0 1.4-.667.133-.32.267-.853-.133-1.52zm-18.267-.067l-.2.734h-6.28l9.493-16.694 3.067 5.507-6.08 10.454zm1.48.734l5.48-9.6 5.573 9.6H13.132zm12.707 0l-.267-.733-6.053-10.467 1.373-2.307 7.627 13.507h-2.68z" fill="#000"/></svg>