<svg width="64" height="64" fill="none" xmlns="http://www.w3.org/2000/svg"><path d="M32 5.333a26.666 26.666 0 110 53.333 26.666 26.666 0 010-53.332zM26.668 40.88c.427 1.44.374 2.773 0 4 0 .133-.106.267-.16.453-.053 0-.106.187-.186.32a6.673 6.673 0 01-1.227 1.787c-1.547 1.707-3.76 2.347-4.64 1.814-1.013-.587-.453-2.987 1.307-4.88 1.92-2.027 4.693-3.36 4.693-3.36l.213-.134zm22.054-24.133c-1.2-4.747-9.067-6.293-16.48-3.653-4.427 1.573-9.227 4.026-12.667 7.253-4.08 3.84-4.747 7.173-4.48 8.56.907 4.906 7.68 8.133 10.453 10.506v.027c-.8.4-6.773 3.413-8.213 6.507-1.44 3.253.267 5.6 1.333 5.92 3.574.96 7.174-.773 9.094-3.68 1.866-2.773 1.733-6.373.906-8.187 1.12-.267 2.427-.4 4.08-.213 4.694.56 5.6 3.467 5.414 4.693-.16 1.227-1.147 1.894-1.467 2.107-.32.186-.427.266-.4.426.027.214.187.214.453.16.4-.08 2.48-.986 2.56-3.253.107-2.88-2.64-6.08-7.493-6-2 .053-3.253.24-4.16.587l-.213-.24c-3.014-3.2-8.56-5.467-8.32-9.787.08-1.573.613-5.68 10.666-10.693 8.214-4.107 14.8-2.987 15.947-.453 1.627 3.546-3.52 10.186-12.053 11.146-3.254.373-4.987-.907-5.414-1.36-.453-.453-.506-.533-.666-.453-.294.186-.107.613 0 .88.24.666 1.306 1.787 3.066 2.427 1.574.506 5.414.8 10.027-.987 5.173-2 9.227-7.573 8.027-12.24z" fill="#000"/></svg>